<svg height="512pt" viewBox="-66 0 512 512" width="512pt" xmlns="http://www.w3.org/2000/svg"><path d="m190 512c-8.285156 0-15-6.714844-15-15v-174c0-8.285156 6.714844-15 15-15s15 6.714844 15 15v174c0 8.285156-6.714844 15-15 15zm0 0" fill="#00cab1"/><path d="m190 308v204c8.285156 0 15-6.714844 15-15v-174c0-8.285156-6.714844-15-15-15zm0 0" fill="#00aa95"/><path d="m296.253906 97.109375c-4.859375-54.355469-50.65625-97.109375-106.253906-97.109375-55.523438 0-101.378906 42.78125-106.25 97.109375-47.601562 8.875-83.75 50.71875-83.75 100.855469 0 26.003906 9.75 50.8125 27.457031 69.859375 17.707031 19.042969 41.742188 30.574219 67.675781 32.464843.339844.027344.675782.039063 1.015626.039063l186.773437.0625h.003906c.292969 0 .582031-.007813.871094-.027344 53.945313-3.371093 96.203125-48.347656 96.203125-102.398437 0-49.898438-35.863281-91.9375-83.746094-100.855469zm0 0" fill="#f5f0eb"/><path d="m296.25 97.109375c-4.855469-54.355469-50.652344-97.109375-106.25-97.109375v300.359375l92.921875.03125h.003906c.292969 0 .582031-.007813.871094-.027344 53.945313-3.371093 96.203125-48.347656 96.203125-102.398437 0-49.898438-35.863281-91.9375-83.75-100.855469zm0 0" fill="#ebe1dc"/><path d="m238.457031 242.765625c-6.527343-18.367187-21.367187-34.546875-42.644531-45.929687-1.828125-.980469-3.808594-1.546876-5.8125-1.71875-2.003906.171874-3.984375.738281-5.8125 1.71875-21.277344 11.382812-36.117188 27.5625-42.644531 45.929687-44.542969-16.765625-81.289063 20.734375-81.289063 48.675781 0 9.519532 43.246094 55.558594 129.570313 39.964844.058593.042969.117187.078125.175781.121094.058594-.042969.117188-.078125.175781-.121094 86.324219 15.59375 129.570313-30.445312 129.570313-39.964844 0-27.941406-36.746094-65.441406-81.289063-48.675781zm0 0" fill="#00eccf"/><path d="m238.457031 242.765625c-6.527343-18.367187-21.367187-34.546875-42.644531-45.929687-1.828125-.980469-3.808594-1.546876-5.8125-1.71875v136.410156c.058594-.042969.117188-.078125.175781-.121094 86.324219 15.59375 129.570313-30.445312 129.570313-39.964844 0-27.941406-36.746094-65.441406-81.289063-48.675781zm0 0" fill="#00cab1"/></svg>